<svg xmlns="http://www.w3.org/2000/svg" width="30.408" height="30.407" viewBox="0 0 2.96 2.96" shape-rendering="geometricPrecision" text-rendering="geometricPrecision" image-rendering="optimizeQuality" fill-rule="evenodd" clip-rule="evenodd">
    <defs>
        <style>.fil0{fill:#caf25c}</style>
    </defs>
    <g id="Слой_x0020_1">
        <path class="fil0" d="M1.2 1.38c-.03.01-.06.04-.08.06-.12.09-.14.09-.29.14-.12.04-.12.16-.13.3 0 .07.02.06.08.06H2.2c.1 0 .11.03.09-.18-.01-.1-.03-.15-.11-.18-.14-.05-.17-.05-.29-.14-.12-.09-.07-.08-.17-.02s-.22.09-.34.05c-.11-.03-.16-.1-.19-.09z" />
        <path class="fil0" d="M1.47.37c-.14.01-.23.09-.28.17-.15.23-.09.65.16.8.05.03.11.06.18.05.12-.01.21-.11.26-.19.19-.3.12-.85-.32-.83z" />
        <path class="fil0" d="M.71.52c-.36.06-.35.59-.17.79.05.06.15.15.28.12.1-.03.18-.1.22-.17.08-.13.02-.06-.02-.3a.807.807 0 01.01-.27c.01-.04.01-.03-.02-.07C.95.55.84.51.71.53zm1.46 0c-.09.01-.14.05-.19.11-.03.03-.02.03-.01.08.03.14.01.3-.05.43-.02.04-.01.03.01.07.05.1.1.15.2.2a.2.2 0 00.17.01c.17-.06.3-.28.28-.52-.01-.23-.16-.42-.41-.38zM.05 1.93c.04.02.47.01.56.01 0-.08 0-.16.02-.24.02-.08.04-.12.09-.17a.51.51 0 01-.17-.07c-.06-.04-.04-.03-.14.04-.02.02-.07.04-.1.06-.1.05-.18.05-.22.1-.03.04-.05.21-.04.27zm2.24-.41c.05.05.07.09.09.17.01.08.02.16.02.24.09 0 .51.01.56-.01.01-.05-.01-.23-.04-.27-.05-.07-.16-.04-.31-.16-.14-.1-.07-.09-.19-.02-.04.02-.07.03-.12.04zM.49 2.76c.03.01.16 0 .2 0 .21-.01.15-.29.12-.33C.8 2.42.79 2.41.79 2.4c-.01-.01-.02-.01-.03-.02.04-.02.06-.05.07-.11.01-.12-.01-.22-.15-.22H.5v.71zm.11-.42c.08.01.11-.01.11-.09 0-.09-.02-.11-.11-.1v.19zm0 .32c.12.02.12-.03.12-.11 0-.1-.02-.12-.12-.11v.22zm.44-.62c-.08.01-.13.05-.14.12-.01.06-.01.2-.01.26 0 .07-.01.19.02.25.03.08.11.1.18.09.18-.02.14-.22.14-.39 0-.14.03-.36-.19-.33zm.01.1c-.02.01-.03.01-.04.04v.4c0 .05.02.09.08.07.05-.01.04-.07.04-.12v-.32c0-.05-.02-.09-.07-.07zm-1.01.62h.1l.02-.13h.13c.01.02.02.1.02.13h.11l-.11-.71H.15l-.11.71zm.14-.23h.1l-.05-.35c-.01.02-.06.31-.05.35zm1.46-.48h-.11c-.01.13 0 .36 0 .51 0 .05 0 .11-.06.11s-.06-.05-.06-.11c0-.13.01-.42 0-.51H1.3v.45c0 .11-.02.28.16.28.07 0 .12-.03.15-.07.03-.06.02-.13.02-.2v-.45zm.92-.01h-.11v.5c0 .05.01.11-.06.12-.06 0-.06-.05-.06-.11v-.51h-.11c-.01.14 0 .3 0 .45 0 .11-.02.28.17.28.17 0 .17-.13.17-.28 0-.14.01-.3 0-.45zm.17.5h-.11c0 .14.03.23.18.22.15-.01.17-.14.14-.25-.03-.11-.12-.15-.18-.22-.03-.03-.05-.12-.01-.15.02-.01.06-.01.07 0 .02.02.02.06.02.09h.1c.02-.13-.06-.22-.2-.2-.06.01-.1.04-.12.08-.05.11 0 .22.08.29l.1.1c.02.04.05.13-.01.15-.08.03-.08-.06-.08-.11zm-1.05-.39h.12v.61h.11v-.61h.12v-.11h-.35z" />
        <path fill="none" d="M0 0h2.96v2.96H0z" />
    </g>
</svg>