<svg xmlns="http://www.w3.org/2000/svg" width="30.408" height="30.408" viewBox="0 0 3.06 3.06" shape-rendering="geometricPrecision" text-rendering="geometricPrecision" image-rendering="optimizeQuality" fill-rule="evenodd" clip-rule="evenodd">
    <defs>
        <style>.fil0{fill:#caf25c}</style>
    </defs>
    <g id="Слой_x0020_1">
        <g id="_1290217552">
            <path class="fil0" d="M1.38.87c-.27.04-.48.22-.56.47-.03.09-.04.2-.03.3.05.35.36.65.78.59.34-.04.64-.37.59-.77a.577.577 0 00-.09-.26.688.688 0 00-.69-.34zm-.4.34c.03.07-.03.08-.04.1-.01.01-.01.03-.02.05-.02.02-.05.07-.05.1-.01.05-.02.16 0 .21.01.03.05.03.09.06.02.02.02.02.03.04.03.07.02 0 .09.07.03.03.06.02.03.1-.01.04 0 .03 0 .06l-.02.02c.17.16.48.18.7.05.15-.09.25-.23.29-.4.01-.06 0-.04-.01-.09-.01-.04-.01-.06-.04-.08l-.06.06c-.02.03-.02.07-.03.09-.02.03-.04.05-.05.07-.02.02-.03.05-.03.1.04.01.05-.05.07-.08.03.08.02.23-.08.22-.02-.02-.03-.02-.03-.06-.03.03-.02.02-.02.06-.02.02-.03.03-.05.04-.04.04-.09.09-.17.07-.01-.04 0-.06-.02-.1-.01-.03-.04-.05-.04-.09 0-.02.01-.03.01-.05.01-.04-.04-.09-.04-.09-.01-.01-.01-.04-.01-.06-.03 0-.03 0-.05-.02-.08.03-.09.04-.13 0-.01-.01-.02-.01-.04-.03a.231.231 0 01-.06-.19c.01-.06.1-.1.11-.14.01-.04-.03-.07-.01-.11.01-.02.05-.03.07-.05-.03-.01-.05.03-.07-.03-.01-.04.01-.08.04-.1.07-.05.08.05.11.05.01-.05-.04-.04.03-.1.01-.01.03-.02.05-.03.02-.01.04-.02.05-.02-.07-.01-.24-.01-.3.02-.01.01-.02.02-.03.02-.04.01.01-.03-.06.05-.02.02-.04.07-.07.1-.04.03-.04.02-.06.02h-.02c-.02.01-.02 0-.03.03-.01.04-.01.02-.02.04z" />
            <path class="fil0" d="M2 .61c-.01.03-.05.06-.04.1.01.04.07.02.11.02.05 0 .09 0 .14-.01.04 0 .1 0 .09-.05 0-.03-.06-.16-.08-.2C2.21.44 2.2.39 2.16.39c-.02 0-.03.02-.04.03-.01.02-.02.03-.03.05-.04-.01-.12-.07-.3-.12C1.02.15.2.74.23 1.61c0 .03 0 .07.01.09.01.02.03.04.06.05.03 0 .06-.01.07-.03.04-.05-.01-.21.05-.46.06-.22.2-.42.37-.56.3-.23.69-.3 1.05-.17.04.01.12.05.14.07zM.98 2.52c.01-.02.05-.07.05-.09 0-.05-.06-.04-.11-.03-.05 0-.09 0-.14.01-.14.01-.12 0-.02.25.01.03.02.08.06.08.03 0 .06-.06.07-.08.04.01.08.04.14.06.16.06.36.09.53.08.26-.02.49-.12.67-.25.02-.01.04-.03.06-.04l.11-.1c.08-.1.09-.1.17-.24.1-.18.17-.42.16-.66 0-.06 0-.12-.06-.14-.06-.01-.1.03-.1.11a1.138 1.138 0 01-.4.93c-.05.04-.13.09-.19.12-.09.05-.2.08-.31.1-.22.04-.53 0-.68-.1zM2.91.35c.02.03.01.1.12.12.02-.07.05-.16-.01-.22C2.97.19 2.97.23 2.9.17c-.21-.17-.6.04-.55.19.02.06.09.1.16.12.14.04.31-.07.4-.12zm-.42.83h.56V.92c0-.11-.07-.1-.17-.09-.01.01-.08.14-.1.17v.01L2.7.87C2.69.86 2.68.83 2.67.83c-.09 0-.16-.02-.16.09v.26zm.49-.21h-.13c0 .05.01.09.06.09.06 0 .07-.04.07-.09zM.03 2.84c.03.01.49 0 .56 0v-.26c0-.04-.01-.07-.05-.08a.244.244 0 00-.12 0c-.02.13.03.04-.05.15-.02.02-.03.02-.06.02-.04 0-.04-.01-.08-.06-.01-.01-.02-.02-.02-.04V2.5c-.22 0-.16-.01-.17.35z" />
            <path class="fil0" d="M2.49.5c-.03.15.12.25.26.25s.29-.1.25-.26C2.98.46 2.96.5 2.89.4c0-.01 0-.01-.01-.01-.13.06-.21.13-.4.1zm.15.02c-.04.02-.02.08.02.06.04-.01.02-.08-.02-.06zm.18 0c-.04.02-.02.08.02.06.04-.01.02-.08-.02-.06zM.39 2.14H.05c-.07.19.22.36.42.23.04-.03.08-.07.09-.12.01-.03.01-.09-.01-.12H.43v-.01c-.01-.02 0-.01-.01-.01l-.01.03zm-.2.02c-.02.01-.02.03-.01.05.01.01.03.02.05.01.03-.02.01-.08-.04-.06zm.18 0c-.04.02-.01.08.03.06.04-.02.01-.08-.03-.06z" />
            <path class="fil0" d="M0 2.11h.37l.04-.06.04.06h.16c0-.07-.07-.15-.1-.17-.12-.1-.28-.1-.4 0-.01.01-.01 0-.02.02-.04.04-.08.09-.09.16z" />
        </g>
        <path fill="none" d="M0 0h3.06v3.06H0z" />
    </g>
</svg>